<svg width="160" height="164" viewBox="0 0 160 164" fill="none" xmlns="http://www.w3.org/2000/svg">
<g id="ic_All">
<g id="Group 3">
<mask id="mask0" mask-type="alpha" maskUnits="userSpaceOnUse" x="0" y="3" width="160" height="161">
<path id="Clip 2" fill-rule="evenodd" clip-rule="evenodd" d="M0 3.44194H160V163.442H0V3.44194Z" fill="white"/>
</mask>
<g mask="url(#mask0)">
<path id="Fill 1" fill-rule="evenodd" clip-rule="evenodd" d="M160 83.4418C160 127.624 124.182 163.442 80.0001 163.442C35.8175 163.442 -0.000137329 127.624 -0.000137329 83.4418C-0.000137329 39.2596 35.8175 3.44194 80.0001 3.44194C124.182 3.44194 160 39.2596 160 83.4418" fill="#EF3A50"/>
</g>
</g>
<g id="Group 6">
<mask id="mask1" mask-type="alpha" maskUnits="userSpaceOnUse" x="33" y="0" width="94" height="164">
<path id="Clip 5" fill-rule="evenodd" clip-rule="evenodd" d="M33.9626 0H126.038V163.442H33.9626V0Z" fill="white"/>
</mask>
<g mask="url(#mask1)">
<path id="Fill 4" fill-rule="evenodd" clip-rule="evenodd" d="M114.386 0H45.6142C39.1783 0 33.9626 5.21736 33.9626 11.6529V148.871C46.9807 158.048 62.8608 163.442 80.0001 163.442C97.141 163.442 113.02 158.05 126.038 148.872V11.6529C126.038 5.21736 120.822 0 114.386 0" fill="#6843AF"/>
</g>
</g>
<path id="Fill 7" fill-rule="evenodd" clip-rule="evenodd" d="M53.9589 11.6079C53.9589 9.77106 54.3866 8.03418 55.1448 6.48914C56.9043 2.90045 60.4531 0.347952 64.6317 0H45.6141C45.2116 0 44.8148 0.0197918 44.4221 0.0596945C43.4434 0.159611 42.5004 0.380193 41.6079 0.707077C41.251 0.837958 40.9021 0.985119 40.5627 1.14824C40.0526 1.39404 39.5639 1.67592 39.0988 1.99003C38.4792 2.40789 37.9017 2.88545 37.3743 3.4128C37.368 3.41919 37.3632 3.42525 37.3568 3.43164C35.2595 5.53882 33.9612 8.4431 33.9612 11.6529V148.871C40.0552 153.167 46.7764 156.633 53.9589 159.106V11.6079Z" fill="#50309E"/>
<path id="Fill 9" fill-rule="evenodd" clip-rule="evenodd" d="M115.835 150.37H44.1666C42.8524 150.37 41.7875 149.304 41.7875 147.991V20.5525C41.7875 19.2383 42.8524 18.1734 44.1666 18.1734H115.835C117.149 18.1734 118.214 19.2383 118.214 20.5525V147.991C118.214 149.304 117.149 150.37 115.835 150.37" fill="#71A2EA"/>
<path id="Fill 11" fill-rule="evenodd" clip-rule="evenodd" d="M44.1666 18.172C42.8524 18.172 41.7875 19.2382 41.7875 20.5525V147.991C41.7875 149.305 42.8524 150.37 44.1666 150.37H53.9591V18.172H44.1666Z" fill="#578DCE"/>
<path id="Fill 13" fill-rule="evenodd" clip-rule="evenodd" d="M92.9305 11.4384H66.6544C65.374 11.4384 64.3365 10.3997 64.3365 9.12023C64.3365 7.83983 65.374 6.80109 66.6544 6.80109H92.9305C94.2112 6.80109 95.2487 7.83983 95.2487 9.12023C95.2487 10.3997 94.2112 11.4384 92.9305 11.4384" fill="#28126B"/>
<path id="Fill 15" fill-rule="evenodd" clip-rule="evenodd" d="M108.277 9.11917C108.277 10.6741 107.017 11.9347 105.462 11.9347C103.907 11.9347 102.646 10.6741 102.646 9.11917C102.646 7.56424 103.907 6.30363 105.462 6.30363C107.017 6.30363 108.277 7.56424 108.277 9.11917" fill="#28126B"/>
<path id="Fill 17" fill-rule="evenodd" clip-rule="evenodd" d="M109.436 81.7209C109.436 97.7455 96.4457 110.737 80.4207 110.737C64.3961 110.737 51.4054 97.7455 51.4054 81.7209C51.4054 65.6963 64.3961 52.7052 80.4207 52.7052C96.4457 52.7052 109.436 65.6963 109.436 81.7209" fill="#578DCE"/>
<path id="Fill 19" fill-rule="evenodd" clip-rule="evenodd" d="M106.12 81.7208C106.12 95.9137 94.6142 107.419 80.4213 107.419C66.2283 107.419 54.7226 95.9137 54.7226 81.7208C54.7226 67.5278 66.2283 56.0221 80.4213 56.0221C94.6142 56.0221 106.12 67.5278 106.12 81.7208" fill="#FDD33A"/>
<path id="Fill 21" fill-rule="evenodd" clip-rule="evenodd" d="M92.1373 78.8292H82.8824V69.5743C82.8824 67.9769 81.588 66.6825 79.9906 66.6825C78.3932 66.6825 77.0991 67.9769 77.0991 69.5743V78.8292H67.8439C66.2468 78.8292 64.9524 80.1236 64.9524 81.721C64.9524 83.3184 66.2468 84.6125 67.8439 84.6125H77.0991V93.8674C77.0991 95.4648 78.3932 96.7592 79.9906 96.7592C81.588 96.7592 82.8824 95.4648 82.8824 93.8674V84.6125H92.1373C93.7347 84.6125 95.0291 83.3184 95.0291 81.721C95.0291 80.1236 93.7347 78.8292 92.1373 78.8292" fill="white"/>
</g>
</svg>
